<svg width="227" height="256" viewBox="0 0 227 256" fill="none" xmlns="http://www.w3.org/2000/svg">
<path d="M26.5104 68.9558C43.0168 69.4674 131.551 65.3714 131.551 65.3714C131.551 65.3714 149.058 53.5944 160.062 36.1848C171.067 18.7752 164.564 1.36557 131.551 1.36557C98.5385 1.36557 47.0184 -1.70696 26.5104 1.36557C6.00234 4.4381 0 23.8961 0 36.1848C0 48.4734 10.0039 68.4442 26.5104 68.9558Z" fill="url(#paint0_linear_7_26)"/>
<path d="M193.975 193.515H96C87.6194 194.269 79.4999 196.456 74.5 199.956C69.5001 203.456 74.5 199.956 60.5 210.956C46.5001 221.956 45.4999 236.956 69.5001 253.456C76.8187 255.463 111.25 254.966 123.5 255.627H173.529C182.558 255.627 186.819 254.707 193.975 252.069C201.132 249.43 217.502 233.25 218 217.914C216.52 202.663 210 193.515 193.975 193.515Z" fill="url(#paint1_linear_7_26)"/>
<path d="M223.986 31.5361C223.986 31.5361 212.5 1.04677 193 1.04689L106 1.04694C101.684 1.11423 124.616 -0.0561266 139.5 4.52258C146 6.52219 145 6.52203 153.5 14.0201C155.5 17.5193 157 24.0174 153.5 34.5146C146.116 48.1999 144.213 52.017 129.429 64.0245L68.5695 128.502L41.4093 157.991C28.0071 170.553 23.3269 177.714 11.4999 193.978L3.68675 212.472C2.71247 221.234 3.47356 226.422 6.20158 235.963C17.2382 248.23 25.0356 252.47 41.4093 255.956L68.5695 254.957H101.765C81.0217 253.059 70.7614 251.023 68.5695 235.963C69.9045 225.637 72.728 220.554 80.6407 212.472L103.274 193.978L146.529 151.993L187.27 108.009C219.28 78.5781 231.898 61.9466 223.986 31.5361Z" fill="#052010"/>
<defs>
<linearGradient id="paint0_linear_7_26" x1="-66.5" y1="-0.043581" x2="180.5" y2="60.4564" gradientUnits="userSpaceOnUse">
<stop offset="0.28" stop-color="#09A171"/>
<stop offset="0.966429" stop-color="#000100"/>
</linearGradient>
<linearGradient id="paint1_linear_7_26" x1="213.5" y1="197.456" x2="58" y2="232.956" gradientUnits="userSpaceOnUse">
<stop offset="0.375049" stop-color="#09A171"/>
<stop offset="1"/>
</linearGradient>
</defs>
</svg>
